<svg xmlns="http://www.w3.org/2000/svg" viewBox="0 0 760 583.55" role="img" aria-label="1.1.6 · 초과 장 제거 개념도" data-standard-code="1.1.6" data-standard-detail="variant-1" style="font-family:Arial,Malgun Gothic,sans-serif"><title>1.1.6 · 초과 장 제거 · 개념도</title><rect width="100%" height="100%" rx="20" fill="#fcfdf8"/><defs><marker id="sis-detail-1-1-6-variant-1" markerWidth="7" markerHeight="7" refX="6" refY="3.5" orient="auto-start-reverse"><path d="M0,0 L7,3.5 L0,7" fill="none" stroke="context-stroke" stroke-width="1.4"/></marker></defs><text x="30" y="31" text-anchor="start" fill="#6a8654" font-size="13"><tspan x="30" dy="0">원전의 대안 분기 · 별도 공식 </tspan><tspan x="30" dy="20.150000000000002">번호 없음</tspan></text><text x="30" y="63" text-anchor="start" fill="#273b43" font-size="21"><tspan x="30" dy="0">1.1.6 · 초과 장 제거</tspan></text><g data-detail-mechanism="true"><rect x="16" y="93" width="728" height="317" rx="18" fill="#ecf3e1" stroke="#d8e2cd"/><text x="37" y="126" text-anchor="start" fill="#273b43" font-size="17"><tspan x="37" dy="0">변환 기전 · 초과 장 제거</tspan></text><path class="sis-edge" data-source="F" data-target="S1" data-style="action" d="M213.66666666666669,242 L333.0,242" fill="none" stroke="#547957" stroke-width="2" marker-end="url(#sis-detail-1-1-6-variant-1)"/><circle cx="273.33333333333337" cy="242" r="11" fill="white" stroke="#547957"/><text x="273.33333333333337" y="246" text-anchor="middle" fill="#547957" font-size="12"><tspan x="273.33333333333337" dy="0">1</tspan></text><path class="sis-edge" data-source="F" data-target="S3" data-style="action" d="M166.66666666666669,199 C166.66666666666669,151 593.3333333333334,151 593.3333333333334,199" fill="none" stroke="#547957" stroke-width="2" marker-end="url(#sis-detail-1-1-6-variant-1)"/><circle cx="380.0" cy="163.0" r="11" fill="white" stroke="#547957"/><text x="380.0" y="167.0" text-anchor="middle" fill="#547957" font-size="12"><tspan x="380.0" dy="0">2</tspan></text><g class="sis-node" data-node="F" data-kind="field"><title>필요보다 큰 장</title><circle cx="166.66666666666669" cy="242" r="43" fill="white" stroke="#ccd9bd"/><g transform="translate(166.66666666666669,242)"><path d="M-29,0 Q-22,-25 -14,0 T1,0 T16,0 T31,0" fill="none" stroke="#4c725e" stroke-width="2.4" stroke-linecap="round" stroke-linejoin="round"/></g><text x="166.66666666666669" y="312" text-anchor="middle" fill="#273b43" font-size="17"><tspan x="166.66666666666669" dy="0">필요보다 큰 장</tspan></text></g><g class="sis-node" data-node="S1" data-kind="substance"><title>대상</title><circle cx="380.0" cy="242" r="43" fill="white" stroke="#ccd9bd"/><g transform="translate(380.0,242)"><circle cx="0" cy="0" r="27" fill="#dce8c7" stroke="#4c725e" stroke-width="2"/></g><text x="380.0" y="312" text-anchor="middle" fill="#273b43" font-size="17"><tspan x="380.0" dy="0">대상</tspan></text></g><g class="sis-node" data-node="S3" data-kind="shield"><title>초과분 흡수 물질</title><circle cx="593.3333333333334" cy="242" r="43" fill="white" stroke="#ccd9bd"/><g transform="translate(593.3333333333334,242)"><path d="M0,-31 L28,-19 V3 Q22,23 0,32 Q-22,23 -28,3 V-19 Z" fill="none" stroke="#4c725e" stroke-width="2.4" stroke-linecap="round" stroke-linejoin="round"/><path d="M-13,0 L-2,11 L15,-11" fill="none" stroke="#4c725e" stroke-width="2.4" stroke-linecap="round" stroke-linejoin="round"/></g><text x="593.3333333333334" y="312" text-anchor="middle" fill="#273b43" font-size="17"><tspan x="593.3333333333334" dy="0">초과분 흡수 물질</tspan></text></g><text x="43" y="344" text-anchor="start" fill="#61765a" font-size="15"><tspan x="43" dy="0">1  필요한 작용 사용</tspan></text><text x="43" y="369" text-anchor="start" fill="#61765a" font-size="15"><tspan x="43" dy="0">2  초과 장 흡수·제거</tspan></text></g><text x="32" y="445" text-anchor="start" fill="#647b55" font-size="16"><tspan x="32" dy="0">변환 원리 · 최대 장의 초과 작용을 다른 물질이 흡수·제거하게 한다.</tspan></text><text x="32" y="481.8" text-anchor="start" fill="#647b55" font-size="16"><tspan x="32" dy="0">원전 적용 조건 · 정량 작용이 필요하나 장을 그 수준으로 직접 조절하기 어려울 </tspan><tspan x="32" dy="24.8">때.</tspan></text><text x="32" y="543.4" text-anchor="start" fill="#647b55" font-size="13"><tspan x="32" dy="0">개념도 · 실제 적용·검증 결과가 아닙니다. 화살표의 의미는 각 관계 설명을 따릅니다.</tspan></text></svg>