<svg xmlns="http://www.w3.org/2000/svg" viewBox="0 0 760 561.5500000000001" role="img" aria-label="1.1.1 · 누락된 물질 보충 개념도" data-standard-code="1.1.1" data-standard-detail="variant-3" style="font-family:Arial,Malgun Gothic,sans-serif"><title>1.1.1 · 누락된 물질 보충 · 개념도</title><rect width="100%" height="100%" rx="20" fill="#fcfdf8"/><defs><marker id="sis-detail-1-1-1-variant-3" markerWidth="7" markerHeight="7" refX="6" refY="3.5" orient="auto-start-reverse"><path d="M0,0 L7,3.5 L0,7" fill="none" stroke="context-stroke" stroke-width="1.4"/></marker></defs><text x="30" y="31" text-anchor="start" fill="#6a8654" font-size="13"><tspan x="30" dy="0">원전의 대안 분기 · 별도 공식 </tspan><tspan x="30" dy="20.150000000000002">번호 없음</tspan></text><text x="30" y="63" text-anchor="start" fill="#273b43" font-size="21"><tspan x="30" dy="0">1.1.1 · 누락된 물질 보충</tspan></text><g data-detail-mechanism="true"><rect x="16" y="93" width="728" height="295" rx="18" fill="#ecf3e1" stroke="#d8e2cd"/><text x="37" y="126" text-anchor="start" fill="#273b43" font-size="17"><tspan x="37" dy="0">변환 기전 · 누락된 물질 보충</tspan></text><path class="sis-edge" data-source="F" data-target="S2" data-style="action" d="M213.66666666666669,220 L333.0,220" fill="none" stroke="#547957" stroke-width="2" marker-end="url(#sis-detail-1-1-1-variant-3)"/><circle cx="273.33333333333337" cy="220" r="11" fill="white" stroke="#547957"/><text x="273.33333333333337" y="224" text-anchor="middle" fill="#547957" font-size="12"><tspan x="273.33333333333337" dy="0">1</tspan></text><path class="sis-edge" data-source="S2" data-target="S1" data-style="action" d="M427.0,220 L546.3333333333334,220" fill="none" stroke="#547957" stroke-width="2" marker-end="url(#sis-detail-1-1-1-variant-3)"/><circle cx="486.6666666666667" cy="220" r="11" fill="white" stroke="#547957"/><text x="486.6666666666667" y="224" text-anchor="middle" fill="#547957" font-size="12"><tspan x="486.6666666666667" dy="0">2</tspan></text><g class="sis-node" data-node="F" data-kind="field"><title>기존 장 F</title><circle cx="166.66666666666669" cy="220" r="43" fill="white" stroke="#ccd9bd"/><g transform="translate(166.66666666666669,220)"><path d="M-29,0 Q-22,-25 -14,0 T1,0 T16,0 T31,0" fill="none" stroke="#4c725e" stroke-width="2.4" stroke-linecap="round" stroke-linejoin="round"/></g><text x="166.66666666666669" y="290" text-anchor="middle" fill="#273b43" font-size="17"><tspan x="166.66666666666669" dy="0">기존 장 F</tspan></text></g><g class="sis-node" data-node="S2" data-kind="substance"><title>새 도구 S2</title><circle cx="380.0" cy="220" r="43" fill="white" stroke="#ccd9bd"/><g transform="translate(380.0,220)"><circle cx="0" cy="0" r="27" fill="#dce8c7" stroke="#4c725e" stroke-width="2"/></g><text x="380.0" y="290" text-anchor="middle" fill="#273b43" font-size="17"><tspan x="380.0" dy="0">새 도구 S2</tspan></text></g><g class="sis-node" data-node="S1" data-kind="substance"><title>기존 대상 S1</title><circle cx="593.3333333333334" cy="220" r="43" fill="white" stroke="#ccd9bd"/><g transform="translate(593.3333333333334,220)"><circle cx="0" cy="0" r="27" fill="#dce8c7" stroke="#4c725e" stroke-width="2"/></g><text x="593.3333333333334" y="290" text-anchor="middle" fill="#273b43" font-size="17"><tspan x="593.3333333333334" dy="0">기존 대상 S1</tspan></text></g><text x="43" y="322" text-anchor="start" fill="#61765a" font-size="15"><tspan x="43" dy="0">1  장과 도구 연결</tspan></text><text x="43" y="347" text-anchor="start" fill="#61765a" font-size="15"><tspan x="43" dy="0">2  빠진 물질로 작용 경로 완성</tspan></text></g><text x="32" y="423" text-anchor="start" fill="#647b55" font-size="16"><tspan x="32" dy="0">변환 원리 · 대상과 장에 도구 물질을 추가해 작용 경로를 완성한다.</tspan></text><text x="32" y="459.8" text-anchor="start" fill="#647b55" font-size="16"><tspan x="32" dy="0">원전 적용 조건 · 대상과 장이 있으나 이를 연결할 물질이 빠져 있고 물질 </tspan><tspan x="32" dy="24.8">도입이 허용될 때.</tspan></text><text x="32" y="521.4000000000001" text-anchor="start" fill="#647b55" font-size="13"><tspan x="32" dy="0">개념도 · 실제 적용·검증 결과가 아닙니다. 화살표의 의미는 각 관계 설명을 따릅니다.</tspan></text></svg>