<svg xmlns="http://www.w3.org/2000/svg" viewBox="0 0 760 759" role="img" aria-label="2.2.3 모세관·다공질 구조 구조도" data-standard-code="2.2.3" style="font-family:Arial,Malgun Gothic,sans-serif"><title>2.2.3 모세관·다공질 구조 · 개념 변환</title><rect width="100%" height="100%" rx="20" fill="#fcfdf8"/><defs><marker id="sis-2-2-3" markerWidth="7" markerHeight="7" refX="6" refY="3.5" orient="auto-start-reverse"><path d="M0,0 L7,3.5 L0,7" fill="none" stroke="context-stroke" stroke-width="1.4"/></marker></defs><text x="30" y="31" text-anchor="start" fill="#6a8654" font-size="13"><tspan x="30" dy="0">STANDARD 2.2.3</tspan></text><text x="30" y="63" text-anchor="start" fill="#273b43" font-size="21"><tspan x="30" dy="0">모세관·다공질 구조</tspan></text><g data-standard="2.2.3" data-phase="before"><rect x="16" y="90" width="728" height="246" rx="18" fill="#f4f5ef" stroke="#d8e2cd"/><text x="37" y="123" text-anchor="start" fill="#273b43" font-size="17"><tspan x="37" dy="0">변환 전 · 공동이 없는 고체</tspan></text><g class="sis-node" data-node="S" data-kind="substance"><title>일체 고체</title><circle cx="380.0" cy="229" r="43" fill="white" stroke="#ccd9bd"/><g transform="translate(380.0,229)"><circle cx="0" cy="0" r="27" fill="#dce8c7" stroke="#4c725e" stroke-width="2"/></g><text x="380.0" y="299" text-anchor="middle" fill="#273b43" font-size="17"><tspan x="380.0" dy="0">일체 고체</tspan></text></g></g><path d="M380,345 V372" stroke="#6f8b53" stroke-width="2" marker-end="url(#sis-2-2-3)"/><g data-standard="2.2.3" data-phase="after"><rect x="16" y="381" width="728" height="296" rx="18" fill="#ecf3e1" stroke="#d8e2cd"/><text x="37" y="414" text-anchor="start" fill="#273b43" font-size="17"><tspan x="37" dy="0">변환 후 · 기공 구조의 발전</tspan></text><path class="sis-edge" data-source="A" data-target="B" d="M213.66666666666669,520 L333.0,520" fill="none" stroke="#547957" stroke-width="2" marker-end="url(#sis-2-2-3)"/><circle cx="273.33333333333337" cy="520" r="11" fill="white" stroke="#547957"/><text x="273.33333333333337" y="524" text-anchor="middle" fill="#547957" font-size="12"><tspan x="273.33333333333337" dy="0">1</tspan></text><path class="sis-edge" data-source="B" data-target="C" d="M427.0,520 L546.3333333333334,520" fill="none" stroke="#547957" stroke-width="2" marker-end="url(#sis-2-2-3)"/><circle cx="486.6666666666667" cy="520" r="11" fill="white" stroke="#547957"/><text x="486.6666666666667" y="524" text-anchor="middle" fill="#547957" font-size="12"><tspan x="486.6666666666667" dy="0">2</tspan></text><g class="sis-node" data-node="A" data-kind="hollow"><title>공동</title><circle cx="166.66666666666669" cy="520" r="43" fill="white" stroke="#ccd9bd"/><g transform="translate(166.66666666666669,520)"><rect x="-29" y="-27" width="58" height="54" rx="5" fill="#dce8c7" stroke="#4c725e" stroke-width="2"/><rect x="-14" y="-13" width="28" height="26" rx="5" fill="white" stroke="#4c725e" stroke-width="2"/></g><text x="166.66666666666669" y="590" text-anchor="middle" fill="#273b43" font-size="17"><tspan x="166.66666666666669" dy="0">공동</tspan></text></g><g class="sis-node" data-node="B" data-kind="porous"><title>다공질</title><circle cx="380.0" cy="520" r="43" fill="white" stroke="#ccd9bd"/><g transform="translate(380.0,520)"><rect x="-31" y="-27" width="62" height="54" rx="10" fill="#f0f5e7" stroke="#4c725e" stroke-width="2"/><circle cx="-16" cy="-8" r="6" fill="white" stroke="#4c725e" stroke-width="1"/><circle cx="0" cy="-8" r="6" fill="white" stroke="#4c725e" stroke-width="1"/><circle cx="16" cy="-8" r="6" fill="white" stroke="#4c725e" stroke-width="1"/><circle cx="-16" cy="8" r="6" fill="white" stroke="#4c725e" stroke-width="1"/><circle cx="0" cy="8" r="6" fill="white" stroke="#4c725e" stroke-width="1"/><circle cx="16" cy="8" r="6" fill="white" stroke="#4c725e" stroke-width="1"/></g><text x="380.0" y="590" text-anchor="middle" fill="#273b43" font-size="17"><tspan x="380.0" dy="0">다공질</tspan></text></g><g class="sis-node" data-node="C" data-kind="capillary"><title>구조화된 모세관</title><circle cx="593.3333333333334" cy="520" r="43" fill="white" stroke="#ccd9bd"/><g transform="translate(593.3333333333334,520)"><rect x="-29" y="-27" width="58" height="54" rx="5" fill="none" stroke="#4c725e" stroke-width="2"/><path d="M-18,-25 V25" fill="none" stroke="#4c725e" stroke-width="2.4" stroke-linecap="round" stroke-linejoin="round"/><path d="M-6,-25 V25" fill="none" stroke="#4c725e" stroke-width="2.4" stroke-linecap="round" stroke-linejoin="round"/><path d="M6,-25 V25" fill="none" stroke="#4c725e" stroke-width="2.4" stroke-linecap="round" stroke-linejoin="round"/><path d="M18,-25 V25" fill="none" stroke="#4c725e" stroke-width="2.4" stroke-linecap="round" stroke-linejoin="round"/></g><text x="593.3333333333334" y="590" text-anchor="middle" fill="#273b43" font-size="17"><tspan x="593.3333333333334" dy="0">구조화된 모세관</tspan></text></g><text x="43" y="607" text-anchor="start" fill="#61765a" font-size="15"><tspan x="43" dy="0">1  다수 기공</tspan></text><text x="43" y="632" text-anchor="start" fill="#61765a" font-size="15"><tspan x="43" dy="0">2  배열·크기 제어</tspan></text></g><text x="32" y="717" text-anchor="start" fill="#647b55" font-size="16"><tspan x="32" dy="0">기공 속 유체와 모세관 작용도 활용할 수 있다.</tspan></text></svg>