<svg xmlns="http://www.w3.org/2000/svg" viewBox="0 0 760 536.75" role="img" aria-label="2.4.9 · 장 구조화 개념도" data-standard-code="2.4.9" data-standard-detail="variant-1" style="font-family:Arial,Malgun Gothic,sans-serif"><title>2.4.9 · 장 구조화 · 개념도</title><rect width="100%" height="100%" rx="20" fill="#fcfdf8"/><defs><marker id="sis-detail-2-4-9-variant-1" markerWidth="7" markerHeight="7" refX="6" refY="3.5" orient="auto-start-reverse"><path d="M0,0 L7,3.5 L0,7" fill="none" stroke="context-stroke" stroke-width="1.4"/></marker></defs><text x="30" y="31" text-anchor="start" fill="#6a8654" font-size="13"><tspan x="30" dy="0">원전의 대안 분기 · 별도 공식 </tspan><tspan x="30" dy="20.150000000000002">번호 없음</tspan></text><text x="30" y="63" text-anchor="start" fill="#273b43" font-size="21"><tspan x="30" dy="0">2.4.9 · 장 구조화</tspan></text><g data-detail-mechanism="true"><rect x="16" y="93" width="728" height="295" rx="18" fill="#ecf3e1" stroke="#d8e2cd"/><text x="37" y="126" text-anchor="start" fill="#273b43" font-size="17"><tspan x="37" dy="0">변환 기전 · 장 구조화</tspan></text><path class="sis-edge" data-source="F0" data-target="F1" data-style="action" d="M213.66666666666669,220 L333.0,220" fill="none" stroke="#547957" stroke-width="2" marker-end="url(#sis-detail-2-4-9-variant-1)"/><circle cx="273.33333333333337" cy="220" r="11" fill="white" stroke="#547957"/><text x="273.33333333333337" y="224" text-anchor="middle" fill="#547957" font-size="12"><tspan x="273.33333333333337" dy="0">1</tspan></text><path class="sis-edge" data-source="F1" data-target="S" data-style="action" d="M427.0,220 L546.3333333333334,220" fill="none" stroke="#547957" stroke-width="2" marker-end="url(#sis-detail-2-4-9-variant-1)"/><circle cx="486.6666666666667" cy="220" r="11" fill="white" stroke="#547957"/><text x="486.6666666666667" y="224" text-anchor="middle" fill="#547957" font-size="12"><tspan x="486.6666666666667" dy="0">2</tspan></text><g class="sis-node" data-node="F0" data-kind="field"><title>균일·무질서한 장</title><circle cx="166.66666666666669" cy="220" r="43" fill="white" stroke="#ccd9bd"/><g transform="translate(166.66666666666669,220)"><path d="M-29,0 Q-22,-25 -14,0 T1,0 T16,0 T31,0" fill="none" stroke="#4c725e" stroke-width="2.4" stroke-linecap="round" stroke-linejoin="round"/></g><text x="166.66666666666669" y="290" text-anchor="middle" fill="#273b43" font-size="17"><tspan x="166.66666666666669" dy="0">균일·무질서한 장</tspan></text></g><g class="sis-node" data-node="F1" data-kind="pattern"><title>구조화된 장</title><circle cx="380.0" cy="220" r="43" fill="white" stroke="#ccd9bd"/><g transform="translate(380.0,220)"><rect x="-30" y="-27" width="60" height="54" rx="5" fill="none" stroke="#4c725e" stroke-width="2"/><rect x="-26" y="-24" width="8" height="48" rx="5" fill="rgb(150,190,140)" stroke="#4c725e" stroke-width="2"/><rect x="-14" y="-24" width="8" height="48" rx="5" fill="rgb(167,190,140)" stroke="#4c725e" stroke-width="2"/><rect x="-2" y="-24" width="8" height="48" rx="5" fill="rgb(184,190,140)" stroke="#4c725e" stroke-width="2"/><rect x="10" y="-24" width="8" height="48" rx="5" fill="rgb(201,190,140)" stroke="#4c725e" stroke-width="2"/></g><text x="380.0" y="290" text-anchor="middle" fill="#273b43" font-size="17"><tspan x="380.0" dy="0">구조화된 장</tspan></text></g><g class="sis-node" data-node="S" data-kind="magnetic"><title>Fe-Field 물질</title><circle cx="593.3333333333334" cy="220" r="43" fill="white" stroke="#ccd9bd"/><g transform="translate(593.3333333333334,220)"><path d="M-23,-20 V6 Q-23,29 0,29 Q23,29 23,6 V-20 H9 V6 Q9,14 0,14 Q-9,14 -9,6 V-20 Z" fill="none" stroke="#4c725e" stroke-width="2.4" stroke-linecap="round" stroke-linejoin="round"/><text x="-16" y="-26" text-anchor="middle" fill="#273b43" font-size="11"><tspan x="-16" dy="0">N</tspan></text><text x="16" y="-26" text-anchor="middle" fill="#273b43" font-size="11"><tspan x="16" dy="0">S</tspan></text></g><text x="593.3333333333334" y="290" text-anchor="middle" fill="#273b43" font-size="17"><tspan x="593.3333333333334" dy="0">Fe-Field 물질</tspan></text></g><text x="43" y="322" text-anchor="start" fill="#61765a" font-size="15"><tspan x="43" dy="0">1  공간 구조 부여</tspan></text><text x="43" y="347" text-anchor="start" fill="#61765a" font-size="15"><tspan x="43" dy="0">2  위치별 제어 작용</tspan></text></g><text x="32" y="423" text-anchor="start" fill="#647b55" font-size="16"><tspan x="32" dy="0">변환 원리 · 균일하거나 무질서한 장을 일정 또는 변하는 공간 구조로 만든다.</tspan></text><text x="32" y="459.8" text-anchor="start" fill="#647b55" font-size="16"><tspan x="32" dy="0">원전 적용 조건 · Fe-Field에서 특정 장 분포가 필요한 경우.</tspan></text><text x="32" y="496.6" text-anchor="start" fill="#647b55" font-size="13"><tspan x="32" dy="0">개념도 · 실제 적용·검증 결과가 아닙니다. 화살표의 의미는 각 관계 설명을 따릅니다.</tspan></text></svg>