<svg xmlns="http://www.w3.org/2000/svg" viewBox="0 0 760 561.5500000000001" role="img" aria-label="2.4.9 · 요구 물질 구조에 맞춘 장 개념도" data-standard-code="2.4.9" data-standard-detail="variant-3" style="font-family:Arial,Malgun Gothic,sans-serif"><title>2.4.9 · 요구 물질 구조에 맞춘 장 · 개념도</title><rect width="100%" height="100%" rx="20" fill="#fcfdf8"/><defs><marker id="sis-detail-2-4-9-variant-3" markerWidth="7" markerHeight="7" refX="6" refY="3.5" orient="auto-start-reverse"><path d="M0,0 L7,3.5 L0,7" fill="none" stroke="context-stroke" stroke-width="1.4"/></marker></defs><text x="30" y="31" text-anchor="start" fill="#6a8654" font-size="13"><tspan x="30" dy="0">원전의 대안 분기 · 별도 공식 </tspan><tspan x="30" dy="20.150000000000002">번호 없음</tspan></text><text x="30" y="63" text-anchor="start" fill="#273b43" font-size="21"><tspan x="30" dy="0">2.4.9 · 요구 물질 구조에 맞춘 장</tspan></text><g data-detail-mechanism="true"><rect x="16" y="93" width="728" height="295" rx="18" fill="#ecf3e1" stroke="#d8e2cd"/><text x="37" y="126" text-anchor="start" fill="#273b43" font-size="17"><tspan x="37" dy="0">변환 기전 · 요구 물질 구조에 맞춘 장</tspan></text><path class="sis-edge" data-source="S0" data-target="F" data-style="action" d="M213.66666666666669,220 L333.0,220" fill="none" stroke="#547957" stroke-width="2" marker-end="url(#sis-detail-2-4-9-variant-3)"/><circle cx="273.33333333333337" cy="220" r="11" fill="white" stroke="#547957"/><text x="273.33333333333337" y="224" text-anchor="middle" fill="#547957" font-size="12"><tspan x="273.33333333333337" dy="0">1</tspan></text><path class="sis-edge" data-source="F" data-target="S1" data-style="action" d="M427.0,220 L546.3333333333334,220" fill="none" stroke="#547957" stroke-width="2" marker-end="url(#sis-detail-2-4-9-variant-3)"/><circle cx="486.6666666666667" cy="220" r="11" fill="white" stroke="#547957"/><text x="486.6666666666667" y="224" text-anchor="middle" fill="#547957" font-size="12"><tspan x="486.6666666666667" dy="0">2</tspan></text><g class="sis-node" data-node="S0" data-kind="pattern"><title>요구 물질 구조</title><circle cx="166.66666666666669" cy="220" r="43" fill="white" stroke="#ccd9bd"/><g transform="translate(166.66666666666669,220)"><rect x="-30" y="-27" width="60" height="54" rx="5" fill="none" stroke="#4c725e" stroke-width="2"/><rect x="-26" y="-24" width="8" height="48" rx="5" fill="rgb(150,190,140)" stroke="#4c725e" stroke-width="2"/><rect x="-14" y="-24" width="8" height="48" rx="5" fill="rgb(167,190,140)" stroke="#4c725e" stroke-width="2"/><rect x="-2" y="-24" width="8" height="48" rx="5" fill="rgb(184,190,140)" stroke="#4c725e" stroke-width="2"/><rect x="10" y="-24" width="8" height="48" rx="5" fill="rgb(201,190,140)" stroke="#4c725e" stroke-width="2"/></g><text x="166.66666666666669" y="290" text-anchor="middle" fill="#273b43" font-size="17"><tspan x="166.66666666666669" dy="0">요구 물질 구조</tspan></text></g><g class="sis-node" data-node="F" data-kind="pattern"><title>대응 장 구조</title><circle cx="380.0" cy="220" r="43" fill="white" stroke="#ccd9bd"/><g transform="translate(380.0,220)"><rect x="-30" y="-27" width="60" height="54" rx="5" fill="none" stroke="#4c725e" stroke-width="2"/><rect x="-26" y="-24" width="8" height="48" rx="5" fill="rgb(150,190,140)" stroke="#4c725e" stroke-width="2"/><rect x="-14" y="-24" width="8" height="48" rx="5" fill="rgb(167,190,140)" stroke="#4c725e" stroke-width="2"/><rect x="-2" y="-24" width="8" height="48" rx="5" fill="rgb(184,190,140)" stroke="#4c725e" stroke-width="2"/><rect x="10" y="-24" width="8" height="48" rx="5" fill="rgb(201,190,140)" stroke="#4c725e" stroke-width="2"/></g><text x="380.0" y="290" text-anchor="middle" fill="#273b43" font-size="17"><tspan x="380.0" dy="0">대응 장 구조</tspan></text></g><g class="sis-node" data-node="S1" data-kind="pattern"><title>형성된 물질 구조</title><circle cx="593.3333333333334" cy="220" r="43" fill="white" stroke="#ccd9bd"/><g transform="translate(593.3333333333334,220)"><rect x="-30" y="-27" width="60" height="54" rx="5" fill="none" stroke="#4c725e" stroke-width="2"/><rect x="-26" y="-24" width="8" height="48" rx="5" fill="rgb(150,190,140)" stroke="#4c725e" stroke-width="2"/><rect x="-14" y="-24" width="8" height="48" rx="5" fill="rgb(167,190,140)" stroke="#4c725e" stroke-width="2"/><rect x="-2" y="-24" width="8" height="48" rx="5" fill="rgb(184,190,140)" stroke="#4c725e" stroke-width="2"/><rect x="10" y="-24" width="8" height="48" rx="5" fill="rgb(201,190,140)" stroke="#4c725e" stroke-width="2"/></g><text x="593.3333333333334" y="290" text-anchor="middle" fill="#273b43" font-size="17"><tspan x="593.3333333333334" dy="0">형성된 물질 구조</tspan></text></g><text x="43" y="322" text-anchor="start" fill="#61765a" font-size="15"><tspan x="43" dy="0">1  요구 구조에 맞춰 장 설정</tspan></text><text x="43" y="347" text-anchor="start" fill="#61765a" font-size="15"><tspan x="43" dy="0">2  장으로 구조 형성</tspan></text></g><text x="32" y="423" text-anchor="start" fill="#647b55" font-size="16"><tspan x="32" dy="0">변환 원리 · 물질에 원하는 공간 구조와 대응하는 구조의 장에서 공정을 수행한다.</tspan></text><text x="32" y="459.8" text-anchor="start" fill="#647b55" font-size="16"><tspan x="32" dy="0">원전 적용 조건 · 모델에 있거나 참여 가능한 물질에 특정 구조를 부여해야 할 </tspan><tspan x="32" dy="24.8">때.</tspan></text><text x="32" y="521.4000000000001" text-anchor="start" fill="#647b55" font-size="13"><tspan x="32" dy="0">개념도 · 실제 적용·검증 결과가 아닙니다. 화살표의 의미는 각 관계 설명을 따릅니다.</tspan></text></svg>