<svg xmlns="http://www.w3.org/2000/svg" viewBox="0 0 760 784" role="img" aria-label="3.1.3 구성요소의 차이 확대 구조도" data-standard-code="3.1.3" style="font-family:Arial,Malgun Gothic,sans-serif"><title>3.1.3 구성요소의 차이 확대 · 개념 변환</title><rect width="100%" height="100%" rx="20" fill="#fcfdf8"/><defs><marker id="sis-3-1-3" markerWidth="7" markerHeight="7" refX="6" refY="3.5" orient="auto-start-reverse"><path d="M0,0 L7,3.5 L0,7" fill="none" stroke="context-stroke" stroke-width="1.4"/></marker></defs><text x="30" y="31" text-anchor="start" fill="#6a8654" font-size="13"><tspan x="30" dy="0">STANDARD 3.1.3</tspan></text><text x="30" y="63" text-anchor="start" fill="#273b43" font-size="21"><tspan x="30" dy="0">구성요소의 차이 확대</tspan></text><g data-standard="3.1.3" data-phase="before"><rect x="16" y="90" width="728" height="271" rx="18" fill="#f4f5ef" stroke="#d8e2cd"/><text x="37" y="123" text-anchor="start" fill="#273b43" font-size="17"><tspan x="37" dy="0">변환 전 · 같은 성질의 요소들</tspan></text><path class="sis-edge" data-source="A" data-target="B" d="M267.0,229 L493.0,229" fill="none" stroke="#547957" stroke-width="2"/><circle cx="380.0" cy="229" r="11" fill="white" stroke="#547957"/><text x="380.0" y="233" text-anchor="middle" fill="#547957" font-size="12"><tspan x="380.0" dy="0">1</tspan></text><g class="sis-node" data-node="A" data-kind="system"><title>동일 요소 A</title><circle cx="220.0" cy="229" r="43" fill="white" stroke="#ccd9bd"/><g transform="translate(220.0,229)"><rect x="-30" y="-24" width="60" height="48" rx="5" fill="none" stroke="#4c725e" stroke-width="2"/><rect x="-23" y="-15" width="18" height="30" rx="5" fill="#dce8c7" stroke="#4c725e" stroke-width="2"/><rect x="4" y="-15" width="18" height="30" rx="5" fill="none" stroke="#4c725e" stroke-width="2"/></g><text x="220.0" y="299" text-anchor="middle" fill="#273b43" font-size="17"><tspan x="220.0" dy="0">동일 요소 A</tspan></text></g><g class="sis-node" data-node="B" data-kind="system"><title>동일 요소 A</title><circle cx="540.0" cy="229" r="43" fill="white" stroke="#ccd9bd"/><g transform="translate(540.0,229)"><rect x="-30" y="-24" width="60" height="48" rx="5" fill="none" stroke="#4c725e" stroke-width="2"/><rect x="-23" y="-15" width="18" height="30" rx="5" fill="#dce8c7" stroke="#4c725e" stroke-width="2"/><rect x="4" y="-15" width="18" height="30" rx="5" fill="none" stroke="#4c725e" stroke-width="2"/></g><text x="540.0" y="299" text-anchor="middle" fill="#273b43" font-size="17"><tspan x="540.0" dy="0">동일 요소 A</tspan></text></g><text x="43" y="316" text-anchor="start" fill="#61765a" font-size="15"><tspan x="43" dy="0">1  결합</tspan></text></g><path d="M380,370 V397" stroke="#6f8b53" stroke-width="2" marker-end="url(#sis-3-1-3)"/><g data-standard="3.1.3" data-phase="after"><rect x="16" y="406" width="728" height="296" rx="18" fill="#ecf3e1" stroke="#d8e2cd"/><text x="37" y="439" text-anchor="start" fill="#273b43" font-size="17"><tspan x="37" dy="0">변환 후 · 성질 차이의 확대</tspan></text><path class="sis-edge" data-source="A" data-target="B" d="M213.66666666666669,545 L333.0,545" fill="none" stroke="#547957" stroke-width="2" marker-end="url(#sis-3-1-3)"/><circle cx="273.33333333333337" cy="545" r="11" fill="white" stroke="#547957"/><text x="273.33333333333337" y="549" text-anchor="middle" fill="#547957" font-size="12"><tspan x="273.33333333333337" dy="0">1</tspan></text><path class="sis-edge" data-source="B" data-target="C" d="M427.0,545 L546.3333333333334,545" fill="none" stroke="#547957" stroke-width="2" marker-end="url(#sis-3-1-3)"/><circle cx="486.6666666666667" cy="545" r="11" fill="white" stroke="#547957"/><text x="486.6666666666667" y="549" text-anchor="middle" fill="#547957" font-size="12"><tspan x="486.6666666666667" dy="0">2</tspan></text><g class="sis-node" data-node="A" data-kind="system"><title>특성이 다른 요소</title><circle cx="166.66666666666669" cy="545" r="43" fill="white" stroke="#ccd9bd"/><g transform="translate(166.66666666666669,545)"><rect x="-30" y="-24" width="60" height="48" rx="5" fill="none" stroke="#4c725e" stroke-width="2"/><rect x="-23" y="-15" width="18" height="30" rx="5" fill="#dce8c7" stroke="#4c725e" stroke-width="2"/><rect x="4" y="-15" width="18" height="30" rx="5" fill="none" stroke="#4c725e" stroke-width="2"/></g><text x="166.66666666666669" y="615" text-anchor="middle" fill="#273b43" font-size="17"><tspan x="166.66666666666669" dy="0">특성이 다른 요소</tspan></text></g><g class="sis-node" data-node="B" data-kind="pattern"><title>이종 요소</title><circle cx="380.0" cy="545" r="43" fill="white" stroke="#ccd9bd"/><g transform="translate(380.0,545)"><rect x="-30" y="-27" width="60" height="54" rx="5" fill="none" stroke="#4c725e" stroke-width="2"/><rect x="-26" y="-24" width="8" height="48" rx="5" fill="rgb(150,190,140)" stroke="#4c725e" stroke-width="2"/><rect x="-14" y="-24" width="8" height="48" rx="5" fill="rgb(167,190,140)" stroke="#4c725e" stroke-width="2"/><rect x="-2" y="-24" width="8" height="48" rx="5" fill="rgb(184,190,140)" stroke="#4c725e" stroke-width="2"/><rect x="10" y="-24" width="8" height="48" rx="5" fill="rgb(201,190,140)" stroke="#4c725e" stroke-width="2"/></g><text x="380.0" y="615" text-anchor="middle" fill="#273b43" font-size="17"><tspan x="380.0" dy="0">이종 요소</tspan></text></g><g class="sis-node" data-node="C" data-kind="system"><title>상반 성질 요소</title><circle cx="593.3333333333334" cy="545" r="43" fill="white" stroke="#ccd9bd"/><g transform="translate(593.3333333333334,545)"><rect x="-30" y="-24" width="60" height="48" rx="5" fill="none" stroke="#4c725e" stroke-width="2"/><rect x="-23" y="-15" width="18" height="30" rx="5" fill="#dce8c7" stroke="#4c725e" stroke-width="2"/><rect x="4" y="-15" width="18" height="30" rx="5" fill="none" stroke="#4c725e" stroke-width="2"/></g><text x="593.3333333333334" y="615" text-anchor="middle" fill="#273b43" font-size="17"><tspan x="593.3333333333334" dy="0">상반 성질 요소</tspan></text></g><text x="43" y="632" text-anchor="start" fill="#61765a" font-size="15"><tspan x="43" dy="0">1  차이 확대</tspan></text><text x="43" y="657" text-anchor="start" fill="#61765a" font-size="15"><tspan x="43" dy="0">2  차이 확대</tspan></text></g><text x="32" y="742" text-anchor="start" fill="#647b55" font-size="16"><tspan x="32" dy="0">비슷한 요소의 집합에서 이종·반대 성질의 조합으로 발전한다.</tspan></text></svg>