<svg xmlns="http://www.w3.org/2000/svg" viewBox="0 0 760 538.75" role="img" aria-label="3.1.2 · 이미 강체로 연결된 요소 개념도" data-standard-code="3.1.2" data-standard-detail="variant-2" style="font-family:Arial,Malgun Gothic,sans-serif"><title>3.1.2 · 이미 강체로 연결된 요소 · 개념도</title><rect width="100%" height="100%" rx="20" fill="#fcfdf8"/><defs><marker id="sis-detail-3-1-2-variant-2" markerWidth="7" markerHeight="7" refX="6" refY="3.5" orient="auto-start-reverse"><path d="M0,0 L7,3.5 L0,7" fill="none" stroke="context-stroke" stroke-width="1.4"/></marker></defs><text x="30" y="31" text-anchor="start" fill="#6a8654" font-size="13"><tspan x="30" dy="0">원전의 대안 분기 · 별도 공식 </tspan><tspan x="30" dy="20.150000000000002">번호 없음</tspan></text><text x="30" y="63" text-anchor="start" fill="#273b43" font-size="21"><tspan x="30" dy="0">3.1.2 · 이미 강체로 연결된 요소</tspan></text><g data-detail-mechanism="true"><rect x="16" y="93" width="728" height="297" rx="18" fill="#ecf3e1" stroke="#d8e2cd"/><text x="37" y="126" text-anchor="start" fill="#273b43" font-size="17"><tspan x="37" dy="0">변환 기전 · 이미 강체로 연결된 요소</tspan></text><path class="sis-edge" data-source="A" data-target="B" data-style="action" d="M267.0,220 L493.0,220" fill="none" stroke="#547957" stroke-width="2" marker-end="url(#sis-detail-3-1-2-variant-2)"/><circle cx="380.0" cy="220" r="11" fill="white" stroke="#547957"/><text x="380.0" y="224" text-anchor="middle" fill="#547957" font-size="12"><tspan x="380.0" dy="0">1</tspan></text><g class="sis-node" data-node="A" data-kind="system"><title>강체로 연결된 요소들</title><circle cx="220.0" cy="220" r="43" fill="white" stroke="#ccd9bd"/><g transform="translate(220.0,220)"><rect x="-30" y="-24" width="60" height="48" rx="5" fill="none" stroke="#4c725e" stroke-width="2"/><rect x="-23" y="-15" width="18" height="30" rx="5" fill="#dce8c7" stroke="#4c725e" stroke-width="2"/><rect x="4" y="-15" width="18" height="30" rx="5" fill="none" stroke="#4c725e" stroke-width="2"/></g><text x="220.0" y="290" text-anchor="middle" fill="#273b43" font-size="17"><tspan x="220.0" dy="0">강체로 연결된 </tspan><tspan x="220.0" dy="26.35">요소들</tspan></text></g><g class="sis-node" data-node="B" data-kind="flexible"><title>동적으로 연결된 요소들</title><circle cx="540.0" cy="220" r="43" fill="white" stroke="#ccd9bd"/><g transform="translate(540.0,220)"><path d="M-28,19 L-10,-14 L10,14 L28,-19" fill="none" stroke="#4c725e" stroke-width="2.4" stroke-linecap="round" stroke-linejoin="round"/><circle cx="-28" cy="19" r="5" fill="white" stroke="#4c725e" stroke-width="2"/><circle cx="-10" cy="-14" r="5" fill="white" stroke="#4c725e" stroke-width="2"/><circle cx="10" cy="14" r="5" fill="white" stroke="#4c725e" stroke-width="2"/><circle cx="28" cy="-19" r="5" fill="white" stroke="#4c725e" stroke-width="2"/></g><text x="540.0" y="290" text-anchor="middle" fill="#273b43" font-size="17"><tspan x="540.0" dy="0">동적으로 연결된 </tspan><tspan x="540.0" dy="26.35">요소들</tspan></text></g><text x="43" y="349" text-anchor="start" fill="#61765a" font-size="15"><tspan x="43" dy="0">1  기존 강체 연결의 동적화</tspan></text></g><text x="32" y="425" text-anchor="start" fill="#647b55" font-size="16"><tspan x="32" dy="0">변환 원리 · 요소 사이 연결의 동적성을 높인다.</tspan></text><text x="32" y="461.8" text-anchor="start" fill="#647b55" font-size="16"><tspan x="32" dy="0">원전 적용 조건 · 바이·폴리 시스템 요소가 강체 연결되어 있을 때.</tspan></text><text x="32" y="498.6" text-anchor="start" fill="#647b55" font-size="13"><tspan x="32" dy="0">개념도 · 실제 적용·검증 결과가 아닙니다. 화살표의 의미는 각 관계 설명을 따릅니다.</tspan></text></svg>