<svg xmlns="http://www.w3.org/2000/svg" viewBox="0 0 760 586.35" role="img" aria-label="5.1.1.5 · 보통 첨가제의 극소량 국부 집중 개념도" data-standard-code="5.1.1" data-standard-detail="sub-5.1.1.5" style="font-family:Arial,Malgun Gothic,sans-serif"><title>5.1.1.5 · 보통 첨가제의 극소량 국부 집중 · 개념도</title><rect width="100%" height="100%" rx="20" fill="#fcfdf8"/><defs><marker id="sis-detail-5-1-1-sub-5-1-1-5" markerWidth="7" markerHeight="7" refX="6" refY="3.5" orient="auto-start-reverse"><path d="M0,0 L7,3.5 L0,7" fill="none" stroke="context-stroke" stroke-width="1.4"/></marker></defs><text x="30" y="31" text-anchor="start" fill="#6a8654" font-size="13"><tspan x="30" dy="0">공식 하위 방법</tspan></text><text x="30" y="63" text-anchor="start" fill="#273b43" font-size="21"><tspan x="30" dy="0">5.1.1.5 · 보통 첨가제의 극소량 국부 집중</tspan></text><g data-detail-mechanism="true"><rect x="16" y="93" width="728" height="295" rx="18" fill="#ecf3e1" stroke="#d8e2cd"/><text x="37" y="126" text-anchor="start" fill="#273b43" font-size="17"><tspan x="37" dy="0">변환 기전 · 보통 첨가제의 극소량 국부 집중</tspan></text><path class="sis-edge" data-source="A" data-target="L" data-style="action" d="M213.66666666666669,220 L333.0,220" fill="none" stroke="#547957" stroke-width="2" marker-end="url(#sis-detail-5-1-1-sub-5-1-1-5)"/><circle cx="273.33333333333337" cy="220" r="11" fill="white" stroke="#547957"/><text x="273.33333333333337" y="224" text-anchor="middle" fill="#547957" font-size="12"><tspan x="273.33333333333337" dy="0">1</tspan></text><path class="sis-edge" data-source="L" data-target="R" data-style="action" d="M427.0,220 L546.3333333333334,220" fill="none" stroke="#547957" stroke-width="2" marker-end="url(#sis-detail-5-1-1-sub-5-1-1-5)"/><circle cx="486.6666666666667" cy="220" r="11" fill="white" stroke="#547957"/><text x="486.6666666666667" y="224" text-anchor="middle" fill="#547957" font-size="12"><tspan x="486.6666666666667" dy="0">2</tspan></text><g class="sis-node" data-node="A" data-kind="particles"><title>소량의 일반 첨가물</title><circle cx="166.66666666666669" cy="220" r="43" fill="white" stroke="#ccd9bd"/><g transform="translate(166.66666666666669,220)"><circle cx="-16" cy="-16" r="3.7" fill="#809c67" stroke="#4c725e" stroke-width="1"/><circle cx="0" cy="-16" r="3.7" fill="#809c67" stroke="#4c725e" stroke-width="1"/><circle cx="16" cy="-16" r="3.7" fill="#809c67" stroke="#4c725e" stroke-width="1"/><circle cx="-16" cy="0" r="3.7" fill="#809c67" stroke="#4c725e" stroke-width="1"/><circle cx="0" cy="0" r="3.7" fill="#809c67" stroke="#4c725e" stroke-width="1"/><circle cx="16" cy="0" r="3.7" fill="#809c67" stroke="#4c725e" stroke-width="1"/><circle cx="-16" cy="16" r="3.7" fill="#809c67" stroke="#4c725e" stroke-width="1"/><circle cx="0" cy="16" r="3.7" fill="#809c67" stroke="#4c725e" stroke-width="1"/><circle cx="16" cy="16" r="3.7" fill="#809c67" stroke="#4c725e" stroke-width="1"/></g><text x="166.66666666666669" y="290" text-anchor="middle" fill="#273b43" font-size="17"><tspan x="166.66666666666669" dy="0">소량의 일반 첨가물</tspan></text></g><g class="sis-node" data-node="L" data-kind="pattern"><title>필요 위치에 집중</title><circle cx="380.0" cy="220" r="43" fill="white" stroke="#ccd9bd"/><g transform="translate(380.0,220)"><rect x="-30" y="-27" width="60" height="54" rx="5" fill="none" stroke="#4c725e" stroke-width="2"/><rect x="-26" y="-24" width="8" height="48" rx="5" fill="rgb(150,190,140)" stroke="#4c725e" stroke-width="2"/><rect x="-14" y="-24" width="8" height="48" rx="5" fill="rgb(167,190,140)" stroke="#4c725e" stroke-width="2"/><rect x="-2" y="-24" width="8" height="48" rx="5" fill="rgb(184,190,140)" stroke="#4c725e" stroke-width="2"/><rect x="10" y="-24" width="8" height="48" rx="5" fill="rgb(201,190,140)" stroke="#4c725e" stroke-width="2"/></g><text x="380.0" y="290" text-anchor="middle" fill="#273b43" font-size="17"><tspan x="380.0" dy="0">필요 위치에 집중</tspan></text></g><g class="sis-node" data-node="R" data-kind="process"><title>국소 기능</title><circle cx="593.3333333333334" cy="220" r="43" fill="white" stroke="#ccd9bd"/><g transform="translate(593.3333333333334,220)"><path d="M-26,0 H21 M8,-13 L22,0 L8,13" fill="none" stroke="#4c725e" stroke-width="2.4" stroke-linecap="round" stroke-linejoin="round"/></g><text x="593.3333333333334" y="290" text-anchor="middle" fill="#273b43" font-size="17"><tspan x="593.3333333333334" dy="0">국소 기능</tspan></text></g><text x="43" y="322" text-anchor="start" fill="#61765a" font-size="15"><tspan x="43" dy="0">1  공간적으로 국소화</tspan></text><text x="43" y="347" text-anchor="start" fill="#61765a" font-size="15"><tspan x="43" dy="0">2  필요 지점에만 작용</tspan></text></g><text x="32" y="423" text-anchor="start" fill="#647b55" font-size="16"><tspan x="32" dy="0">변환 원리 · 보통 첨가제를 매우 적게 사용하되 대상의 특정 부분에 집중 </tspan><tspan x="32" dy="24.8">배치한다.</tspan></text><text x="32" y="484.6" text-anchor="start" fill="#647b55" font-size="16"><tspan x="32" dy="0">원전 적용 조건 · 물질 도입 제약을 적은 총량과 국부 집중 배치로 우회하는 </tspan><tspan x="32" dy="24.8">경우.</tspan></text><text x="32" y="546.2" text-anchor="start" fill="#647b55" font-size="13"><tspan x="32" dy="0">개념도 · 실제 적용·검증 결과가 아닙니다. 화살표의 의미는 각 관계 설명을 따릅니다.</tspan></text></svg>