<svg xmlns="http://www.w3.org/2000/svg" viewBox="0 0 760 784" role="img" aria-label="5.4.2 임계 상태에서 작은 입력으로 큰 출력 구조도" data-standard-code="5.4.2" style="font-family:Arial,Malgun Gothic,sans-serif"><title>5.4.2 임계 상태에서 작은 입력으로 큰 출력 · 개념 변환</title><rect width="100%" height="100%" rx="20" fill="#fcfdf8"/><defs><marker id="sis-5-4-2" markerWidth="7" markerHeight="7" refX="6" refY="3.5" orient="auto-start-reverse"><path d="M0,0 L7,3.5 L0,7" fill="none" stroke="context-stroke" stroke-width="1.4"/></marker></defs><text x="30" y="31" text-anchor="start" fill="#6a8654" font-size="13"><tspan x="30" dy="0">STANDARD 5.4.2</tspan></text><text x="30" y="63" text-anchor="start" fill="#273b43" font-size="21"><tspan x="30" dy="0">임계 상태에서 작은 입력으로 큰 출력</tspan></text><g data-standard="5.4.2" data-phase="before"><rect x="16" y="90" width="728" height="246" rx="18" fill="#f4f5ef" stroke="#d8e2cd"/><text x="37" y="123" text-anchor="start" fill="#273b43" font-size="17"><tspan x="37" dy="0">변환 전 · 작은 제어 입력으로 큰 작용 필요</tspan></text><g class="sis-node" data-node="I" data-kind="field"><title>작은 입력</title><circle cx="220.0" cy="229" r="43" fill="white" stroke="#ccd9bd"/><g transform="translate(220.0,229)"><path d="M-29,0 Q-22,-25 -14,0 T1,0 T16,0 T31,0" fill="none" stroke="#4c725e" stroke-width="2.4" stroke-linecap="round" stroke-linejoin="round"/></g><text x="220.0" y="299" text-anchor="middle" fill="#273b43" font-size="17"><tspan x="220.0" dy="0">작은 입력</tspan></text></g><g class="sis-node" data-node="R" data-kind="process"><title>큰 출력 요구</title><circle cx="540.0" cy="229" r="43" fill="white" stroke="#ccd9bd"/><g transform="translate(540.0,229)"><path d="M-26,0 H21 M8,-13 L22,0 L8,13" fill="none" stroke="#4c725e" stroke-width="2.4" stroke-linecap="round" stroke-linejoin="round"/></g><text x="540.0" y="299" text-anchor="middle" fill="#273b43" font-size="17"><tspan x="540.0" dy="0">큰 출력 요구</tspan></text></g></g><path d="M380,345 V372" stroke="#6f8b53" stroke-width="2" marker-end="url(#sis-5-4-2)"/><g data-standard="5.4.2" data-phase="after"><rect x="16" y="381" width="728" height="321" rx="18" fill="#ecf3e1" stroke="#d8e2cd"/><text x="37" y="414" text-anchor="start" fill="#273b43" font-size="17"><tspan x="37" dy="0">변환 후 · 임계 상태의 저장 에너지를 방출</tspan></text><path class="sis-edge" data-source="E" data-target="C" d="M187.0,520 L253.0,520" fill="none" stroke="#547957" stroke-width="2" marker-end="url(#sis-5-4-2)"/><circle cx="220.0" cy="520" r="11" fill="white" stroke="#547957"/><text x="220.0" y="524" text-anchor="middle" fill="#547957" font-size="12"><tspan x="220.0" dy="0">1</tspan></text><path class="sis-edge" data-source="I" data-target="C" d="M413.0,520 L347.0,520" fill="none" stroke="#547957" stroke-width="2" marker-end="url(#sis-5-4-2)"/><circle cx="380.0" cy="520" r="11" fill="white" stroke="#547957"/><text x="380.0" y="524" text-anchor="middle" fill="#547957" font-size="12"><tspan x="380.0" dy="0">2</tspan></text><path class="sis-edge" data-source="C" data-target="R" d="M300.0,477 C300.0,429 620.0,429 620.0,477" fill="none" stroke="#547957" stroke-width="2" marker-end="url(#sis-5-4-2)"/><circle cx="460.0" cy="439" r="11" fill="white" stroke="#547957"/><text x="460.0" y="443" text-anchor="middle" fill="#547957" font-size="12"><tspan x="460.0" dy="0">3</tspan></text><g class="sis-node" data-node="E" data-kind="energy"><title>저장 에너지</title><circle cx="140.0" cy="520" r="43" fill="white" stroke="#ccd9bd"/><g transform="translate(140.0,520)"><rect x="-26" y="-18" width="47" height="36" rx="5" fill="none" stroke="#4c725e" stroke-width="2"/><rect x="21" y="-8" width="6" height="16" rx="5" fill="none" stroke="#4c725e" stroke-width="2"/><path d="M-14,0 H-3 M-8,-6 V6 M6,0 H15" fill="none" stroke="#4c725e" stroke-width="2.4" stroke-linecap="round" stroke-linejoin="round"/></g><text x="140.0" y="590" text-anchor="middle" fill="#273b43" font-size="17"><tspan x="140.0" dy="0">저장 에너지</tspan></text></g><g class="sis-node" data-node="C" data-kind="critical"><title>임계 상태</title><circle cx="300.0" cy="520" r="43" fill="white" stroke="#ccd9bd"/><g transform="translate(300.0,520)"><path d="M-28,19 L0,-29 L28,19 Z" fill="none" stroke="#4c725e" stroke-width="2.4" stroke-linecap="round" stroke-linejoin="round"/><path d="M0,-11 V4" fill="none" stroke="#4c725e" stroke-width="2.4" stroke-linecap="round" stroke-linejoin="round"/><circle cx="0" cy="12" r="2.5" fill="#4c725e"/></g><text x="300.0" y="590" text-anchor="middle" fill="#273b43" font-size="17"><tspan x="300.0" dy="0">임계 상태</tspan></text></g><g class="sis-node" data-node="I" data-kind="pulse"><title>작은 제어 입력</title><circle cx="460.0" cy="520" r="43" fill="white" stroke="#ccd9bd"/><g transform="translate(460.0,520)"><path d="M-27,5 H-19 V-14 H-6 V12 H7 V-14 H20 V5 H28" fill="none" stroke="#4c725e" stroke-width="2.4" stroke-linecap="round" stroke-linejoin="round"/></g><text x="460.0" y="590" text-anchor="middle" fill="#273b43" font-size="17"><tspan x="460.0" dy="0">작은 제어 입력</tspan></text></g><g class="sis-node" data-node="R" data-kind="process"><title>큰 출력</title><circle cx="620.0" cy="520" r="43" fill="white" stroke="#ccd9bd"/><g transform="translate(620.0,520)"><path d="M-26,0 H21 M8,-13 L22,0 L8,13" fill="none" stroke="#4c725e" stroke-width="2.4" stroke-linecap="round" stroke-linejoin="round"/></g><text x="620.0" y="590" text-anchor="middle" fill="#273b43" font-size="17"><tspan x="620.0" dy="0">큰 출력</tspan></text></g><text x="43" y="607" text-anchor="start" fill="#61765a" font-size="15"><tspan x="43" dy="0">1  에너지 공급</tspan></text><text x="43" y="632" text-anchor="start" fill="#61765a" font-size="15"><tspan x="43" dy="0">2  임계값 통과</tspan></text><text x="43" y="657" text-anchor="start" fill="#61765a" font-size="15"><tspan x="43" dy="0">3  저장 에너지 방출</tspan></text></g><text x="32" y="742" text-anchor="start" fill="#647b55" font-size="16"><tspan x="32" dy="0">출력 에너지원과 제어 신호를 별개의 노드로 표시한다.</tspan></text></svg>